<?xml version="1.0" encoding="UTF-8" standalone="no"?>
<!-- Uploaded to: SVG Repo, www.svgrepo.com, Generator: SVG Repo Mixer Tools -->

<svg
   fill="#000000"
   height="800px"
   width="800px"
   version="1.1"
   id="Capa_1"
   viewBox="0 0 490.996 490.996"
   xml:space="preserve"
   sodipodi:docname="added-to-cart.svg"
   inkscape:version="1.2.2 (b0a8486541, 2022-12-01)"
   xmlns:inkscape="http://www.inkscape.org/namespaces/inkscape"
   xmlns:sodipodi="http://sodipodi.sourceforge.net/DTD/sodipodi-0.dtd"
   xmlns="http://www.w3.org/2000/svg"
   xmlns:svg="http://www.w3.org/2000/svg"><defs
   id="defs14">
	

		
	</defs><sodipodi:namedview
   id="namedview12"
   pagecolor="#ffffff"
   bordercolor="#000000"
   borderopacity="0.25"
   inkscape:showpageshadow="2"
   inkscape:pageopacity="0.0"
   inkscape:pagecheckerboard="0"
   inkscape:deskcolor="#d1d1d1"
   showgrid="false"
   inkscape:zoom="0.66625"
   inkscape:cx="360.97561"
   inkscape:cy="258.16135"
   inkscape:window-width="1366"
   inkscape:window-height="709"
   inkscape:window-x="0"
   inkscape:window-y="26"
   inkscape:window-maximized="1"
   inkscape:current-layer="Capa_1" />
<g
   id="g6"
   transform="translate(6.5560981,-149.00632)">
			<path
   d="m 478.33648,291.93301 c -7.247,-10.404 -19.144,-16.61401 -31.816,-16.61401 h -94.624 c 13.291,2.77499 24.603,11.71399 29.943,24.615 1.063,2.569 1.761,5.212 2.283,7.869 h 62.396 c 2.063,0 3.997,1.015 5.155,2.67 1.175,1.698 1.444,3.86199 0.73,5.79099 l -44.992,121.107 c -0.905,2.451 -3.267,4.102 -5.887,4.102 H 149.21745 L 109.01244,269.967 C 104.00245,248.681 85.240454,233.81399 63.381455,233.81399 H 18.639453 c -13.4489996,0 -24.3609903,10.904 -24.3609903,24.36101 0,13.457 10.9119907,24.362 24.3609903,24.362 h 43.286002 l 54.130995,230.91899 c 4.914,20.864 23.05801,35.479 44.35999,36.042 -12.53199,9.103 -20.76399,23.765 -20.76399,40.436 0,27.662 22.42899,50.078 50.09002,50.078 27.66201,0 50.07201,-22.416 50.07201,-50.078 0,-16.605 -8.17,-31.212 -20.623,-40.326 h 93.421 c -12.454,9.114 -20.634,23.721 -20.634,40.326 0,27.662 22.428,50.078 50.083,50.078 27.646,0 50.072,-22.416 50.072,-50.078 0,-16.605 -8.187,-31.212 -20.634,-40.326 h 22.714 c 13.448,0 24.361,-10.901 24.361,-24.361 0,-13.457 -10.913,-24.361 -24.361,-24.361 H 163.14344 l -6.313,-26.931 h 244.69304 c 16.113,0 30.703,-10.143 36.338,-25.256 l 44.994,-121.118 c 4.409,-11.882 2.728,-25.19599 -4.519,-35.64798 z"
   id="path2" />
			<path
   d="m 152.18983,-27.177243 c 1.776,1.785 4.109,2.673 6.437,2.673 2.334,0 4.667,-0.888 6.426,-2.673 l 67.007,-66.987025 c 2.621,-2.609001 3.396,-6.524992 1.986,-9.935002 -0.923,-2.221 -3.986,-5.64 -8.422,-5.64 -6.472,0 -25.886,0 -25.886,0 v -31.40298 -55.89 c -0.017,-5.035 -4.094,-9.13701 -9.138,-9.13701 h -63.964 c -5.044,0 -9.12,4.10201 -9.12,9.12001 v 55.908 31.41198 c 0,0 -19.407988,0 -25.877981,0 -4.144013,0 -7.473019,3.332 -8.424019,5.622 -1.41,3.41001 -0.635,7.334001 1.962004,9.943002 z"
   id="path4" />
		</g>
<path
   d="m 294.19342,21.212231 c -56.3863,0 -102.09361,45.710702 -102.09361,102.093609 0,56.38292 45.71075,102.09362 102.09361,102.09362 56.38292,0 102.09362,-45.7107 102.09362,-102.09362 0,-56.382907 -45.7107,-102.093609 -102.09362,-102.093609 z M 270.45667,184.562 l -0.0683,-0.0682 -0.0576,0.0682 -47.60282,-49.00494 23.92052,-24.37995 23.74357,24.44804 71.46551,-73.572097 23.80146,24.495683 z"
   fill="#43a047"
   id="path2076"
   style="stroke-width:3.40312" /></svg>
